<mxfile host="Electron" modified="2024-05-16T09:33:21.433Z" agent="Mozilla/5.0 (Windows NT 10.0; Win64; x64) AppleWebKit/537.36 (KHTML, like Gecko) draw.io/23.0.2 Chrome/120.0.6099.109 Electron/28.1.0 Safari/537.36" etag="PshHSSc2ZNmUY98dFKCC" version="23.0.2" type="device">
  <diagram name="Сторінка-1" id="S0tByGaFXRuuO4umK6PD">
    <mxGraphModel dx="1050" dy="621" grid="1" gridSize="10" guides="1" tooltips="1" connect="1" arrows="1" fold="1" page="1" pageScale="1" pageWidth="827" pageHeight="1169" math="0" shadow="0">
      <root>
        <mxCell id="0" />
        <mxCell id="1" parent="0" />
        <mxCell id="Yvt8ybKCOAY-sS4ezBiP-1" value="PhotoModel" style="swimlane;fontStyle=1;align=center;verticalAlign=top;childLayout=stackLayout;horizontal=1;startSize=26;horizontalStack=0;resizeParent=1;resizeParentMax=0;resizeLast=0;collapsible=1;marginBottom=0;whiteSpace=wrap;html=1;" vertex="1" parent="1">
          <mxGeometry x="80" y="40" width="310" height="130" as="geometry" />
        </mxCell>
        <mxCell id="Yvt8ybKCOAY-sS4ezBiP-2" value="+ title: str&lt;br&gt;+ url: str&lt;br&gt;+ author: str (UserProfileModel:full_name)&lt;br&gt;+ created: datetime&lt;br&gt;+ tags: list(tags)&lt;br&gt;+ comments: list(comments)" style="text;strokeColor=none;fillColor=none;align=left;verticalAlign=top;spacingLeft=4;spacingRight=4;overflow=hidden;rotatable=0;points=[[0,0.5],[1,0.5]];portConstraint=eastwest;whiteSpace=wrap;html=1;" vertex="1" parent="Yvt8ybKCOAY-sS4ezBiP-1">
          <mxGeometry y="26" width="310" height="104" as="geometry" />
        </mxCell>
        <mxCell id="Yvt8ybKCOAY-sS4ezBiP-10" value="PhotoResponseModel" style="swimlane;fontStyle=1;align=center;verticalAlign=top;childLayout=stackLayout;horizontal=1;startSize=26;horizontalStack=0;resizeParent=1;resizeParentMax=0;resizeLast=0;collapsible=1;marginBottom=0;whiteSpace=wrap;html=1;" vertex="1" parent="1">
          <mxGeometry x="80" y="210" width="310" height="110" as="geometry" />
        </mxCell>
        <mxCell id="Yvt8ybKCOAY-sS4ezBiP-11" value="+ url: str&lt;br&gt;+ author: str (UserProfileModel:full_name)&lt;br&gt;+ created: datetime&lt;br&gt;+ uuid: uuid" style="text;strokeColor=none;fillColor=none;align=left;verticalAlign=top;spacingLeft=4;spacingRight=4;overflow=hidden;rotatable=0;points=[[0,0.5],[1,0.5]];portConstraint=eastwest;whiteSpace=wrap;html=1;" vertex="1" parent="Yvt8ybKCOAY-sS4ezBiP-10">
          <mxGeometry y="26" width="310" height="84" as="geometry" />
        </mxCell>
      </root>
    </mxGraphModel>
  </diagram>
</mxfile>
